# xmcd
#
# Track frame offsets:
#	150
#	13190
#	25700
#	37434
#	50603
#	62240
#	74066
#	87073
#	100029
#	112580
#	125509
#	137183
#	148715
#	161634
#	173285
#	186190
#	198481
#	212302
#	224798
#	236630
#	249192
#	261894
#	274325
#
# Disc length: 3826 seconds
#
# Revision: 0
# Processed by: cddbd v1.4PL0 Copyright (c) Steve Scherf et al.
# Submitted via: dBpowerAMP V4.0
#
DISCID=580ef017
DTITLE=Roy Acuff - The Crazy Tennessean
DYEAR=2001
DGENRE=Traditional Country
TTITLE0=Great Speckle Bird
TTITLE1=Ida Red
TTITLE2=Freight Train Blues
TTITLE3=Sad Memories
TTITLE4=Wabash Cannonball
TTITLE5=Shout Oh Lula
TTITLE6=Steel Guitar Blues
TTITLE7=One Old Shirt
TTITLE8=Yes Sir That's My Baby
TTITLE9=Jole Blon
TTITLE10=Waltz Of The Wind
TTITLE11=Low And Lonely
TTITLE12=Tennessee Waltz
TTITLE13=You Gotta See Mama Every Night
TTITLE14=Black Mountain Rag
TTITLE15=The Streamlined Cannon Ball
TTITLE16=You're The Only Star In My Blue HEaven
TTITLE17=Automobile Of Life
TTITLE18=Red Lips
TTITLE19=Charming Betsy
TTITLE20=An Old Three Room Shack
TTITLE21=Honky Tonk Mamas
TTITLE22=Night Train To Memphis
EXTD=william hale
EXTT0=
EXTT1=
EXTT2=
EXTT3=
EXTT4=
EXTT5=
EXTT6=
EXTT7=
EXTT8=
EXTT9=
EXTT10=
EXTT11=
EXTT12=
EXTT13=
EXTT14=
EXTT15=
EXTT16=
EXTT17=
EXTT18=
EXTT19=
EXTT20=
EXTT21=
EXTT22=
PLAYORDER=
